<svg id="レイヤー_1" data-name="レイヤー 1" xmlns="http://www.w3.org/2000/svg" width="30" height="48" viewBox="0 0 30 48"><defs><style>.cls-1{fill:#568958;}.cls-2{fill:#fff;}</style></defs><title>things_to_do</title><g id="map_pin_fill"><path class="cls-1" d="M25.33,4.91A14.6,14.6,0,0,0,4.67,25.56S15,35.68,15,47.37c0-11.68,10.33-21.8,10.33-21.8A14.6,14.6,0,0,0,25.33,4.91Z"/></g><path class="cls-2" d="M16.73,8.56a2,2,0,1,0-2-2A2,2,0,0,0,16.73,8.56ZM13,12,10.11,26.38h2.14l1.83-8.15,2.14,2v6.11h2V18.74l-2.14-2,.61-3.05a7.46,7.46,0,0,0,5.6,2.55v-2A5,5,0,0,1,18,11.71l-1-1.63a2.1,2.1,0,0,0-1.73-1c-.31,0-.51.1-.81.1L9.09,11.41v4.79h2V12.73L13,12"/></svg>