<svg id="レイヤー_1" data-name="レイヤー 1" xmlns="http://www.w3.org/2000/svg" width="30" height="47.9993" viewBox="0 0 30 47.9993"><defs><style>.cls-1{fill:#499aad;}.cls-2{fill:#fff;}</style></defs><title>bicycle</title><g id="map_pin_fill"><path class="cls-1" d="M25.3152,4.93A14.5885,14.5885,0,0,0,4.6839,25.5611S14.993,35.6717,14.993,47.3435c0-11.6717,10.3207-21.7824,10.3207-21.7824A14.5817,14.5817,0,0,0,25.3152,4.93Z"/></g><path class="cls-2" d="M22.6942,21.8893a4.8914,4.8914,0,0,1-3.2679-8.5354l-.71-1.0716-3.8583,5.1257a.6718.6718,0,0,1-.5572.2845h-2.153a4.8933,4.8933,0,1,1-2.492-4.9942l1.4973-2.0005H8.7047a.6995.6995,0,0,1,0-1.3989h4.1968v1.3989h4.7541l-.9289-1.3989H14.3005a.6995.6995,0,0,1,0-1.3989h2.7979a.72.72,0,0,1,.5792.3059l2.9182,4.3722a4.8127,4.8127,0,0,1,2.0984-.4813,4.8963,4.8963,0,1,1,0,9.7926ZM7.3058,17.6924a.6938.6938,0,0,1-.5572-1.1145l2.0546-2.7439a3.4624,3.4624,0,0,0-1.4973-.3385,3.4974,3.4974,0,1,0,3.4316,4.1968Zm3.4316-1.3989a3.5047,3.5047,0,0,0-.8193-1.6171L8.7047,16.2935Zm6.361-4.1968h-5.246l-1.0818,1.4428a4.8117,4.8117,0,0,1,1.377,2.754h1.8032Zm5.5958,1.3989a3.5617,3.5617,0,0,0-1.3225.262l1.9016,2.8417a.6988.6988,0,0,1-.1856.9727.6649.6649,0,0,1-.3936.12.6756.6756,0,0,1-.5792-.3171l-1.9016-2.8417a3.4933,3.4933,0,1,0,2.4808-1.038Z"/></svg>