<svg id="レイヤー_1" data-name="レイヤー 1" xmlns="http://www.w3.org/2000/svg" width="30" height="48" viewBox="0 0 30 48"><defs><style>.cls-1{fill:#476285;}.cls-2{fill:#fff;}</style></defs><title>good_to_know</title><g id="map_pin_fill"><path class="cls-1" d="M25.32,4.93A14.59,14.59,0,0,0,4.68,25.56S15,35.67,15,47.34c0-11.67,10.32-21.78,10.32-21.78A14.58,14.58,0,0,0,25.32,4.93Z"/></g><path class="cls-2" d="M23.78,10.15H19.17V8.63c0-1.1-.71-2.31-1.8-2.31H13.68c-1.1,0-1.81,1.22-1.81,2.31v1.53H7.64a.77.77,0,0,0-.77.77V22.06a.77.77,0,0,0,.77.77H23.78a.77.77,0,0,0,.77-.77V10.92A.77.77,0,0,0,23.78,10.15ZM17.63,21.68H13.4v-.41l.35,0a1.21,1.21,0,0,0,.29-.07.74.74,0,0,0,.36-.23.8.8,0,0,0,.15-.4V16.6a.84.84,0,0,0-.17-.42,1,1,0,0,0-.3-.29.9.9,0,0,0-.3-.16c-.16,0-.38-.08-.38-.09v-.49L16.55,15l-.07.1v5.36a.82.82,0,0,0,.19.4.74.74,0,0,0,.33.25l.29.11c.11,0,.33.05.33.07ZM14,12.55a1.15,1.15,0,0,1,.39-.88,1.39,1.39,0,0,1,1.88,0,1.16,1.16,0,0,1,.39.88,1.14,1.14,0,0,1-.39.87,1.4,1.4,0,0,1-1.88,0A1.14,1.14,0,0,1,14,12.55Zm4-2.4H13V8.63c0-.41.41-1.16.82-1.16h3.09c.41,0,1.08.75,1.08,1.16Z"/></svg>