<svg xmlns="http://www.w3.org/2000/svg" viewBox="0 0 512 512">
  <defs>
    <style>
      .cls-1 { fill: #e56b00;}
    </style>
  </defs>
<path class="cls-1" d="M256,6C117.9,6,6,117.9,6,256s111.9,250,250,250s250-111.9,250-250S394.1,6,256,6z M414.1,174.9c0.3,3.5,0.3,7.1,0.3,10.6c0,107.8-82.1,232.1-232.1,232.1C136,417.6,93.1,404.2,57,381c6.6,0.8,12.9,1,19.7,1c38.1,0,73.2-12.9,101.3-34.9c-35.9-0.8-65.9-24.2-76.3-56.6c5.1,0.8,10.1,1.3,15.4,1.3c7.3,0,14.6-1,21.5-2.8c-37.4-7.6-65.4-40.4-65.4-80.1v-1c10.9,6.1,23.5,9.8,36.9,10.4c-22-14.6-36.4-39.6-36.4-67.9c0-15.2,4-29,11.1-41.2c40.2,49.5,100.5,81.8,168.2,85.4c-1.3-6.1-2-12.4-2-18.7c0-45,36.4-81.6,81.6-81.6c23.5,0,44.7,9.8,59.6,25.8c18.4-3.5,36.1-10.4,51.8-19.7c-6.1,18.9-18.9,34.9-35.9,45c16.4-1.8,32.3-6.3,47-12.6C443.9,148.9,430,163.3,414.1,174.9z"/>
</svg>
