<svg xmlns="http://www.w3.org/2000/svg" viewBox="0 0 500 500">
  <defs>
    <style>
      .cls-1 { fill: #fff;}
      .cls-2 { fill: #e56b00;}
    </style>
  </defs>
  <circle class="cls-1" cx="256.04" cy="256" r="59.33" transform="translate(-112.03 250.03) rotate(-45)"/>
  <path class="cls-1" d="M394.79,151.09A60.1,60.1,0,0,0,361,117.25c-23.35-9.21-79-7.14-104.91-7.14s-81.49-2.15-104.91,7.14a60.1,60.1,0,0,0-33.84,33.84c-9.21,23.35-7.14,79-7.14,104.91s-2.15,81.48,7.14,104.91a60.1,60.1,0,0,0,33.84,33.84c23.35,9.21,79,7.14,104.91,7.14S337.52,404,361,394.75a60.1,60.1,0,0,0,33.84-33.84c9.29-23.35,7.14-79,7.14-104.91S404.08,174.52,394.79,151.09ZM256,347.25A91.25,91.25,0,1,1,347.29,256,91.1,91.1,0,0,1,256,347.25ZM351,182.3A21.29,21.29,0,1,1,372.31,161,21.24,21.24,0,0,1,351,182.3Z" transform="translate(-6 -6)"/>
  <path class="cls-1" d="M256,6C117.93,6,6,117.93,6,256S117.93,506,256,506,506,394.07,506,256,394.07,6,256,6ZM432.75,329.38C431.32,357.9,424.81,383.15,404,404s-46.06,27.4-74.58,28.75c-29.38,1.67-117.46,1.67-146.84,0-28.52-1.43-53.69-7.94-74.58-28.75S80.6,357.9,79.25,329.38c-1.67-29.38-1.67-117.46,0-146.84C80.68,154,87.11,128.77,108,108s46.14-27.32,74.58-28.67c29.38-1.67,117.46-1.67,146.84,0C357.94,80.72,383.19,87.23,404,108s27.4,46.06,28.75,74.58C434.42,212,434.42,300,432.75,329.38Z" transform="translate(-6 -6)"/>
  <polygon class="cls-1" points="250.04 309.33 250.04 309.33 250.04 309.33 250.04 309.33"/>
  <path class="cls-2" d="M256,164.75A91.25,91.25,0,1,0,347.29,256,91.1,91.1,0,0,0,256,164.75Zm0,150.58h0A59.33,59.33,0,1,1,315.37,256,59.44,59.44,0,0,1,256,315.33Z" transform="translate(-6 -6)"/>
  <path class="cls-2" d="M432.75,182.62C431.4,154.1,424.89,128.85,404,108s-46.06-27.32-74.58-28.75C300,77.62,212,77.62,182.58,79.29,154.14,80.64,128.89,87.15,108,108S80.68,154,79.25,182.54c-1.67,29.38-1.67,117.46,0,146.84C80.6,357.9,87.11,383.15,108,404s46.06,27.32,74.58,28.75c29.38,1.67,117.46,1.67,146.84,0,28.52-1.35,53.77-7.86,74.58-28.75s27.32-46.06,28.75-74.58C434.42,300,434.42,212,432.75,182.62Zm-38,178.29A60.1,60.1,0,0,1,361,394.75c-23.43,9.29-79,7.14-104.91,7.14s-81.56,2.07-104.91-7.14a60.1,60.1,0,0,1-33.84-33.84c-9.29-23.43-7.14-79-7.14-104.91s-2.07-81.56,7.14-104.91a60.1,60.1,0,0,1,33.84-33.84c23.42-9.29,79-7.14,104.91-7.14S337.6,108,361,117.25a60.1,60.1,0,0,1,33.84,33.84c9.29,23.43,7.14,79,7.14,104.91S404.08,337.56,394.79,360.91Z" transform="translate(-6 -6)"/>
  <circle class="cls-2" cx="345.03" cy="155.01" r="21.28"/>
</svg>
