<svg xmlns="http://www.w3.org/2000/svg" viewBox="0 0 512 512">
  <defs>
    <style>
      .cls-1 { fill: #fff;}
      .cls-2 { fill: #e56b00;}
    </style>
  </defs>
  <circle class="cls-2" cx="250" cy="250" r="250"/>
  <path class="cls-1" d="M420.76,382.57,340,301.84a140.21,140.21,0,0,0,22.57-97.59C354.33,142.54,303.75,92.31,242,84.49A140.4,140.4,0,0,0,84.51,242c7.82,61.81,58.05,112.43,119.78,120.66A140.22,140.22,0,0,0,301.88,340l80.73,80.73a27,27,0,0,0,38.15-38.2Zm-284.07-159A86.33,86.33,0,1,1,223,309.94,86.43,86.43,0,0,1,136.69,223.61Z" transform="translate(-6 -6)"/>
</svg>
