<svg xmlns="http://www.w3.org/2000/svg" viewBox="0 0 512 512">
  <defs>
    <style>
      .cls-1 { fill: #e56b00;}
    </style>
  </defs>
<ellipse class="cls-1" transform="matrix(0.7071 -0.7071 0.7071 0.7071 -106.027 256.0281)" cx="256" cy="256" rx="59.3" ry="59.3"/>
<path class="cls-1" d="M394.8,151.1c-6.3-15.6-18.3-27.6-33.8-33.8c-23.3-9.2-79-7.1-104.9-7.1s-81.5-2.1-104.9,7.1c-15.6,6.3-27.6,18.3-33.8,33.8c-9.2,23.3-7.1,79-7.1,104.9s-2.1,81.5,7.1,104.9c6.3,15.6,18.3,27.6,33.8,33.8c23.3,9.2,79,7.1,104.9,7.1s81.5,2.1,104.9-7.1c15.6-6.3,27.6-18.3,33.8-33.8c9.3-23.3,7.1-79,7.1-104.9S404.1,174.5,394.8,151.1z M256,347.3c-50.5,0-91.3-40.7-91.3-91.3s40.7-91.3,91.3-91.3s91.3,40.7,91.3,91.3S306.6,347.3,256,347.3z M351,182.3c-11.8,0-21.3-9.5-21.3-21.3s9.5-21.3,21.3-21.3s21.3,9.5,21.3,21.3C372.3,172.8,362.8,182.3,351,182.3z"/>
<path class="cls-1" d="M256,6C117.9,6,6,117.9,6,256s111.9,250,250,250s250-111.9,250-250S394.1,6,256,6z M432.7,329.4c-1.4,28.5-7.9,53.8-28.8,74.6c-20.8,20.9-46.1,27.4-74.6,28.8c-29.4,1.7-117.5,1.7-146.8,0c-28.5-1.4-53.7-7.9-74.6-28.8c-20.9-20.8-27.4-46.1-28.8-74.6c-1.7-29.4-1.7-117.5,0-146.8c1.4-28.5,7.9-53.8,28.8-74.6s46.1-27.3,74.6-28.7c29.4-1.7,117.5-1.7,146.8,0c28.5,1.4,53.8,7.9,74.6,28.8c20.9,20.8,27.4,46.1,28.8,74.6C434.4,212,434.4,300,432.7,329.4z"/>
<polygon class="cls-1" points="256,315.3 256,315.3 256,315.3 "/>
</svg>
