<svg xmlns="http://www.w3.org/2000/svg" viewBox="0 0 500 500">
  <defs>
    <style>
      .cls-1 { fill: #fff;}
      .cls-2 { fill: #e56b00;}
    </style>
  </defs>
  <path class="cls-2" d="M353.31,328.27,364.4,256H295.06V209.07c0-19.76,9.69-39,40.74-39h31.53V108.54s-28.61-4.88-56-4.88c-57.12,0-94.42,34.61-94.42,97.26V256H153.43v72.27h63.51V503a252.45,252.45,0,0,0,78.12,0V328.27Z" transform="translate(-6 -6)"/>
  <path class="cls-1" d="M437.58,427.83c.68-.72,1.35-1.44,2-2.17l1.87-2c.69-.76,1.36-1.54,2-2.31l1.74-2c.88-1,1.75-2.07,2.62-3.11s1.59-1.91,2.37-2.88,1.45-1.78,2.16-2.68c.55-.7,1.09-1.41,1.63-2.12s1.25-1.6,1.86-2.42,1.1-1.48,1.64-2.22,1.18-1.6,1.75-2.4,1.08-1.52,1.62-2.29l1.68-2.42,1.56-2.32c.55-.82,1.09-1.64,1.63-2.47s1-1.56,1.51-2.35l1.58-2.53,1.44-2.36c.52-.87,1-1.75,1.55-2.63s.92-1.55,1.36-2.33,1-1.86,1.57-2.8c.41-.74.83-1.48,1.23-2.23.61-1.12,1.2-2.25,1.79-3.38.31-.6.63-1.19.94-1.8q1.26-2.46,2.47-5c.33-.69.65-1.39,1-2.08.5-1.05,1-2.11,1.48-3.17.35-.77.69-1.55,1-2.33.44-1,.88-2,1.31-3,.34-.8.68-1.61,1-2.42.41-1,.82-2,1.21-3l1-2.49c.38-1,.76-2,1.13-3l.92-2.51c.36-1,.71-2,1.06-3,.29-.83.58-1.66.86-2.5l1-3.14c.26-.81.52-1.62.77-2.44.34-1.11.67-2.23,1-3.34.23-.77.46-1.53.67-2.3.37-1.29.71-2.59,1.05-3.88.16-.6.33-1.2.49-1.8.48-1.89.95-3.79,1.39-5.7.11-.5.21-1,.32-1.49.33-1.43.65-2.87.94-4.32.15-.73.29-1.47.44-2.2.24-1.22.47-2.43.7-3.65l.42-2.43c.19-1.16.39-2.32.57-3.48.13-.84.26-1.69.38-2.53.17-1.14.33-2.29.48-3.44.12-.85.22-1.72.33-2.58.14-1.14.27-2.29.39-3.44l.27-2.59c.11-1.17.21-2.35.31-3.52l.21-2.54c.08-1.23.16-2.46.23-3.69.05-.8.1-1.6.14-2.4q.09-2.06.15-4.11c0-.67.06-1.34.07-2q.07-3.07.08-6.16C506,117.93,394.07,6,256,6S6,117.93,6,256q0,3.09.08,6.16c0,.68,0,1.35.07,2q.06,2.06.15,4.11c0,.8.09,1.6.14,2.4.07,1.23.15,2.46.23,3.69l.21,2.54c.1,1.17.2,2.35.31,3.52L7.46,283c.12,1.15.25,2.3.39,3.44.11.86.21,1.73.33,2.58.15,1.15.31,2.3.48,3.44.12.84.25,1.69.38,2.53.18,1.16.38,2.32.57,3.48l.42,2.43c.23,1.22.46,2.43.7,3.65.15.73.29,1.47.44,2.2.29,1.45.61,2.89.94,4.32.11.5.21,1,.32,1.49.44,1.91.91,3.81,1.39,5.7.16.6.33,1.2.49,1.8.34,1.29.68,2.59,1,3.88.21.77.44,1.53.67,2.3.32,1.11.65,2.23,1,3.34.25.82.51,1.63.77,2.44l1,3.14c.28.84.57,1.67.86,2.5.35,1,.7,2,1.06,3l.92,2.51c.37,1,.75,2,1.13,3l1,2.49c.39,1,.8,2,1.21,3,.33.81.67,1.62,1,2.42.43,1,.87,2,1.31,3,.34.78.68,1.56,1,2.33.48,1.06,1,2.12,1.48,3.17.33.69.65,1.39,1,2.08q1.21,2.5,2.47,5c.31.61.63,1.2.94,1.8.59,1.13,1.18,2.26,1.79,3.38.4.75.82,1.49,1.23,2.23.52.94,1,1.88,1.57,2.8s.9,1.56,1.36,2.33,1,1.76,1.55,2.63l1.44,2.36,1.58,2.53c.5.79,1,1.57,1.51,2.35s1.08,1.65,1.63,2.47l1.56,2.32,1.68,2.42c.54.77,1.07,1.53,1.62,2.29s1.16,1.6,1.75,2.4,1.08,1.49,1.64,2.22,1.23,1.62,1.86,2.42S59,410,59.59,410.68c.71.9,1.44,1.79,2.16,2.68s1.57,1.93,2.37,2.88,1.74,2.08,2.62,3.11l1.74,2c.69.77,1.36,1.55,2,2.31l1.87,2c.67.73,1.34,1.45,2,2.17l1.94,2,2,2.09,2,2,2.08,2c.68.65,1.35,1.3,2,1.94l2.14,2,2.06,1.88c.74.66,1.48,1.32,2.23,2S92.32,445,93,445.56s1.57,1.33,2.36,2,1.33,1.13,2,1.69c.89.73,1.79,1.44,2.69,2.16l1.76,1.42q2.2,1.73,4.44,3.4l1.64,1.2c1,.73,2,1.47,3,2.19.65.47,1.32.92,2,1.38.91.64,1.82,1.28,2.74,1.91l2.09,1.39c.91.6,1.81,1.2,2.73,1.79.7.46,1.42.91,2.13,1.36.92.58,1.84,1.16,2.77,1.73l2.14,1.3,2.86,1.69,2.12,1.23,3,1.67c.68.38,1.36.76,2.05,1.13,1.08.58,2.16,1.15,3.25,1.71l1.85,1c1.28.65,2.57,1.28,3.86,1.92l1.32.64q5.3,2.55,10.72,4.85l1.09.45c1.44.6,2.89,1.2,4.34,1.77l1.53.6c1.32.51,2.65,1,4,1.51l1.69.61c1.3.47,2.6.93,3.91,1.38l1.72.58c1.32.44,2.66.87,4,1.29l1.65.52c1.4.43,2.8.84,4.21,1.25l1.47.42c1.54.43,3.08.85,4.63,1.26l1.08.28c1.85.47,3.71.93,5.58,1.36l.18.05q8.58,2,17.37,3.35V328.27H153.43V256h63.51V200.92c0-62.65,37.3-97.26,94.42-97.26,27.36,0,56,4.88,56,4.88V170H335.8c-31.05,0-40.74,19.28-40.74,39V256H364.4l-11.09,72.27H295.06V503q8.79-1.38,17.37-3.35l.18-.05c1.87-.43,3.73-.89,5.58-1.36l1.08-.28c1.55-.41,3.09-.83,4.63-1.26l1.47-.42c1.41-.41,2.81-.82,4.21-1.25l1.65-.52c1.33-.42,2.67-.85,4-1.29l1.72-.58c1.31-.45,2.61-.91,3.91-1.38l1.69-.61c1.33-.49,2.66-1,4-1.51l1.53-.6c1.45-.57,2.9-1.17,4.34-1.77l1.09-.45q5.43-2.29,10.72-4.85l1.32-.65c1.29-.63,2.58-1.26,3.86-1.91l1.85-1c1.09-.56,2.18-1.13,3.25-1.71.69-.37,1.37-.75,2-1.13,1-.55,2-1.11,3-1.67l2.12-1.23c1-.56,1.91-1.12,2.85-1.69.72-.43,1.44-.86,2.15-1.3.93-.57,1.85-1.15,2.77-1.73.71-.45,1.43-.9,2.13-1.36.92-.59,1.82-1.19,2.73-1.79l2.09-1.39c.92-.63,1.83-1.27,2.74-1.91.66-.46,1.33-.91,2-1.38,1-.72,2-1.46,3-2.19l1.64-1.2q2.24-1.68,4.44-3.4l1.76-1.42c.9-.72,1.8-1.43,2.69-2.16.68-.56,1.34-1.12,2-1.69s1.58-1.32,2.36-2,1.38-1.2,2.06-1.81,1.49-1.31,2.23-2l2.06-1.88,2.14-2c.69-.64,1.36-1.29,2-1.94l2.08-2,2-2,2-2.09Z" transform="translate(-6 -6)"/>
</svg>
