<svg xmlns="http://www.w3.org/2000/svg" viewBox="0 0 500 500">
  <defs>
    <style>
      .cls-1 { fill: #fff;}
      .cls-2 { fill: #e56b00;}
    </style>
  </defs>
  <path class="cls-1" d="M256,6C117.93,6,6,117.93,6,256S117.93,506,256,506,506,394.07,506,256,394.07,6,256,6ZM414.09,174.93c.25,3.54.25,7.08.25,10.61,0,107.84-82.07,232.09-232.08,232.09A230.51,230.51,0,0,1,57,381a168.07,168.07,0,0,0,19.7,1A163.34,163.34,0,0,0,178,347.17,81.71,81.71,0,0,1,101.7,290.6a102.45,102.45,0,0,0,15.4,1.26,86.13,86.13,0,0,0,21.47-2.78,81.57,81.57,0,0,1-65.41-80v-1A82.12,82.12,0,0,0,110,218.37a81.7,81.7,0,0,1-25.25-109.1A231.82,231.82,0,0,0,253,194.63,92.2,92.2,0,0,1,251,176a81.65,81.65,0,0,1,141.17-55.82,160.6,160.6,0,0,0,51.77-19.69A81.34,81.34,0,0,1,408,145.39a163.78,163.78,0,0,0,47-12.63A175.23,175.23,0,0,1,414.09,174.93Z" transform="translate(-6 -6)"/>
  <path class="cls-2" d="M408,145.39a81.34,81.34,0,0,0,35.86-44.95,160.6,160.6,0,0,1-51.77,19.69A81.65,81.65,0,0,0,251,176a92.2,92.2,0,0,0,2,18.68A231.82,231.82,0,0,1,84.78,109.27,81.7,81.7,0,0,0,110,218.37,82.12,82.12,0,0,1,73.16,208v1a81.57,81.57,0,0,0,65.41,80,86.13,86.13,0,0,1-21.47,2.78,102.45,102.45,0,0,1-15.4-1.26A81.71,81.71,0,0,0,178,347.17,163.34,163.34,0,0,1,76.7,382,168.07,168.07,0,0,1,57,381a230.51,230.51,0,0,0,125.26,36.62c150,0,232.08-124.25,232.08-232.09,0-3.53,0-7.07-.25-10.61A175.23,175.23,0,0,0,455,132.76,163.78,163.78,0,0,1,408,145.39Z" transform="translate(-6 -6)"/>
</svg>
