<svg id="レイヤー_1" data-name="レイヤー 1" xmlns="http://www.w3.org/2000/svg" viewBox="0 0 255.12 49.45">
  <defs>
    <style>
      .cls-1 {
        fill: #fff;
      }
    </style>
  </defs>
  <g>
    <path class="cls-1" d="M851.42,576.17a4.1,4.1,0,0,0-2.9,1.19,3.84,3.84,0,0,0-1.26,2.89,3.94,3.94,0,0,0,1.24,2.86,4,4,0,0,0,2.92,1.25,4.22,4.22,0,0,0,4.17-4.11,3.87,3.87,0,0,0-1.23-2.87A4,4,0,0,0,851.42,576.17Z" transform="translate(-672.18 -575.19)"/>
    <path class="cls-1" d="M852,588.35a5.74,5.74,0,0,1-.6,0,6.08,6.08,0,0,1-.61,0,7.85,7.85,0,0,1-3.18-.87V611h7.58V587.51A8.06,8.06,0,0,1,852,588.35Z" transform="translate(-672.18 -575.19)"/>
    <path class="cls-1" d="M672.18,575.19h3.49a5.77,5.77,0,0,1,5.77,5.77v21.37h12.5l4.52,8.65H677.92a5.74,5.74,0,0,1-5.74-5.74Z" transform="translate(-672.18 -575.19)"/>
    <path class="cls-1" d="M724,593.12h0a12.41,12.41,0,0,0-2.79-4.18,12.23,12.23,0,0,0-4.19-2.68,14.5,14.5,0,0,0-10.22,0,12.29,12.29,0,0,0-4.18,2.68,12.59,12.59,0,0,0-2.8,4.18,15,15,0,0,0,0,10.87,12.79,12.79,0,0,0,2.8,4.18,12.31,12.31,0,0,0,4.18,2.67,14.36,14.36,0,0,0,10.22,0,12.36,12.36,0,0,0,4.19-2.67A12.61,12.61,0,0,0,724,604a15,15,0,0,0,0-10.87Zm-6.74,5.43a5.92,5.92,0,0,1-.41,2.24h0a5.19,5.19,0,0,1-1.14,1.7,5,5,0,0,1-1.69,1.08,6,6,0,0,1-4.21,0,5,5,0,0,1-1.69-1.08,5.19,5.19,0,0,1-1.14-1.7,6.16,6.16,0,0,1,0-4.47,5.08,5.08,0,0,1,1.14-1.7,4.83,4.83,0,0,1,1.69-1.09,6,6,0,0,1,4.21,0,5,5,0,0,1,1.69,1.09,5.08,5.08,0,0,1,1.14,1.7A5.87,5.87,0,0,1,717.27,598.55Z" transform="translate(-672.18 -575.19)"/>
    <path class="cls-1" d="M745.74,603.49a4.79,4.79,0,0,1-1.47.76,6.15,6.15,0,0,1-4.34,0l-.46-.19a5.61,5.61,0,0,1-2.1-1.34,5.4,5.4,0,0,1-1.14-2,6.23,6.23,0,0,1-.41-2.27,6,6,0,0,1,.5-2.5,6.79,6.79,0,0,1,1.06-1.63,3.66,3.66,0,0,1,.59-.52,5.87,5.87,0,0,1,1.76-1,6.68,6.68,0,0,1,4.54-.08,4.87,4.87,0,0,1,1.53.76l.3.24,4.41-4.76-.28-.29a10.17,10.17,0,0,0-4.32-2.65,15.55,15.55,0,0,0-10.1.19,13.19,13.19,0,0,0-4.45,2.66,12.56,12.56,0,0,0-3,4.18,14.12,14.12,0,0,0,0,10.88,12.42,12.42,0,0,0,3,4.17,13.05,13.05,0,0,0,4.45,2.67,15.82,15.82,0,0,0,5.44.93,16.18,16.18,0,0,0,4.66-.74,10.17,10.17,0,0,0,4.32-2.65l.28-.29-4.46-4.82Z" transform="translate(-672.18 -575.19)"/>
    <path class="cls-1" d="M783.07,575.19h3.6a5.77,5.77,0,0,1,5.77,5.77v30h-9.37Z" transform="translate(-672.18 -575.19)"/>
    <path class="cls-1" d="M826.18,586.41h5.18a2.5,2.5,0,0,1,2.51,2.41v1.54a9.72,9.72,0,0,1,2.88-3.42,8.54,8.54,0,0,1,5.51-1.08c.72.06,2.08.6,2.08,1.42v6.39c-.94-1-3.53-1.19-4.1-1.19a8,8,0,0,0-3.44.61,4.61,4.61,0,0,0-1.95,1.69,6.45,6.45,0,0,0-.88,2.6,24.58,24.58,0,0,0-.2,3.34V611h-7.59Z" transform="translate(-672.18 -575.19)"/>
    <path class="cls-1" d="M926.13,606.74a12.08,12.08,0,0,1-4.6,3.59,13.78,13.78,0,0,1-5.76,1.26,15.44,15.44,0,0,1-5.34-.91,12.7,12.7,0,0,1-4.35-2.6,12.15,12.15,0,0,1-2.9-4.07,13.71,13.71,0,0,1,0-10.62,12.15,12.15,0,0,1,2.9-4.07,12.7,12.7,0,0,1,4.35-2.6,15.44,15.44,0,0,1,5.34-.91,12,12,0,0,1,4.77.91,9.76,9.76,0,0,1,3.64,2.6,11.84,11.84,0,0,1,2.31,4.07,16.63,16.63,0,0,1,.8,5.31v2.37H909.7a6,6,0,0,0,2,3.47,5.58,5.58,0,0,0,3.74,1.29,5.66,5.66,0,0,0,3.16-.84h0a4.53,4.53,0,0,1,5.17,0Zm-5.73-10.5a4.73,4.73,0,0,0-1.35-3.51,4.79,4.79,0,0,0-3.62-1.46,5.9,5.9,0,0,0-4.14,1.54,5,5,0,0,0-1.13,1.56,5.3,5.3,0,0,0-.46,1.87Z" transform="translate(-672.18 -575.19)"/>
    <path class="cls-1" d="M899.41,607.16c-.47.24-.8.22-1,.05-.35-.35-.44-.61-.46-1.43v-9.31a19.77,19.77,0,0,0-.43-4.17,9.76,9.76,0,0,0-1.42-3.39,6.79,6.79,0,0,0-2.68-2.27,9.34,9.34,0,0,0-4.17-.83,9.51,9.51,0,0,0-4.6,1,8.11,8.11,0,0,0-3.18,3.38,6.78,6.78,0,0,0-3-3.33,9.61,9.61,0,0,0-4.58-1.06,8.55,8.55,0,0,0-2.53.35,9.32,9.32,0,0,0-2.07.91,7.36,7.36,0,0,0-1.57,1.26,6.45,6.45,0,0,0-1,1.42,3.3,3.3,0,0,0-3.42-3.34h-4V611h7.58V598.75a16,16,0,0,1,.16-2.33,5.74,5.74,0,0,1,.63-2,3.58,3.58,0,0,1,1.39-1.42,4.7,4.7,0,0,1,2.37-.53,2.88,2.88,0,0,1,2,.61,3.49,3.49,0,0,1,1,1.46,6.46,6.46,0,0,1,.35,1.82c0,.64,0,1.18,0,1.62v8.88h7.59V598a9.71,9.71,0,0,1,.22-2.12,4.9,4.9,0,0,1,.76-1.77,3.68,3.68,0,0,1,1.42-1.19,5,5,0,0,1,2.2-.43,2.77,2.77,0,0,1,2.6,1.24,5.68,5.68,0,0,1,.73,3v10.5a3.92,3.92,0,0,0,2.88,4.12,6.17,6.17,0,0,0,4.4-.23,31.8,31.8,0,0,0,3.7-2.11v-3.07A19,19,0,0,1,899.41,607.16Z" transform="translate(-672.18 -575.19)"/>
    <path class="cls-1" d="M777.88,606.23a.88.88,0,0,1-.47.13c-.27-.28-.33-.39-.34-1.77v-6.24a26.4,26.4,0,0,0-.51-5.48,10,10,0,0,0-1.86-4.11,8.36,8.36,0,0,0-3.59-2.57,17,17,0,0,0-5.82-.86,17.92,17.92,0,0,0-5.95,1,14.15,14.15,0,0,0-5.05,3l-.32.3,4.63,4.76.3-.35a9.12,9.12,0,0,1,2.6-2,7.06,7.06,0,0,1,3.19-.73,4.7,4.7,0,0,1,3.1,1.08,3.4,3.4,0,0,1,1.25,2.43c-.91,0-1.89,0-2.94,0a33.13,33.13,0,0,0-3.7.3,23.37,23.37,0,0,0-3.59.79,10.87,10.87,0,0,0-3.15,1.54,7.42,7.42,0,0,0-2.23,2.56,7.88,7.88,0,0,0-.83,3.76,7.59,7.59,0,0,0,.75,3.45,7.37,7.37,0,0,0,2,2.51,9,9,0,0,0,2.92,1.5,12,12,0,0,0,8-.39,7.46,7.46,0,0,0,3-2.21,3.5,3.5,0,0,0,3.34,2.49h.51a8.31,8.31,0,0,0,3.23-.59,42,42,0,0,0,3.92-2.26v-3.81A21.68,21.68,0,0,1,777.88,606.23Zm-8.82-6.61v2a3.62,3.62,0,0,1-.42,1.79,3.73,3.73,0,0,1-1.14,1.26,6.12,6.12,0,0,1-1.71.8,5.34,5.34,0,0,1-4.19-.32,1.71,1.71,0,0,1-.94-1.63,2,2,0,0,1,.68-1.63,5.21,5.21,0,0,1,1.84-1c.76-.22,2.6-.65,3.6-.81C767.45,600.05,768.45,599.79,769.06,599.62Z" transform="translate(-672.18 -575.19)"/>
    <path class="cls-1" d="M810.42,583.85a12.55,12.55,0,0,0-9.73,4.59,13.83,13.83,0,0,0-2.88,8.06v28.14h7.58V608a12.59,12.59,0,1,0,5-24.17Zm.12,18.3a5.7,5.7,0,0,1,0-11.38c3,0,5.35,2.05,5.35,5.69S813.56,602.15,810.54,602.15Z" transform="translate(-672.18 -575.19)"/>
  </g>
</svg>
