<svg id="レイヤー_1" data-name="レイヤー 1" xmlns="http://www.w3.org/2000/svg" viewBox="0 0 235.37 55.25">
  <defs>
    <style>
      .cls-1 {
        fill: #e56b00;
      }
    </style>
  </defs>
  <g>
    <path class="cls-1" d="M297.61,132.4h0A10.36,10.36,0,0,1,308,142.58l-.18,16.33a1.33,1.33,0,0,0,1.33,1.33l3.74-.15A10.3,10.3,0,0,1,323,170.39H302.94a5.33,5.33,0,0,1-5.33-5.33Z" transform="translate(-297.61 -115.14)"/>
    <path class="cls-1" d="M352.8,153.13h0A10.36,10.36,0,0,1,342.44,143l.18-16.33a1.34,1.34,0,0,0-1.33-1.34l-3.74.16a10.3,10.3,0,0,1-10.14-10.3h20.07a5.33,5.33,0,0,1,5.32,5.33Z" transform="translate(-297.61 -115.14)"/>
    <path class="cls-1" d="M333.41,129.82a9.3,9.3,0,0,0-15.65,4.5h0l-5.52,21.79H319l3-11.76a9.31,9.31,0,0,0,11.42-14.53Zm-3.84,9.32a3.78,3.78,0,1,1,0-5.35A3.78,3.78,0,0,1,329.57,139.14Z" transform="translate(-297.61 -115.14)"/>
  </g>
  <g>
    <path class="cls-1" d="M483.73,133.49a2.67,2.67,0,0,0-1.88.77,2.48,2.48,0,0,0-.82,1.88,2.55,2.55,0,0,0,.81,1.85,2.59,2.59,0,0,0,1.89.81,2.73,2.73,0,0,0,2.71-2.66,2.53,2.53,0,0,0-.8-1.87A2.64,2.64,0,0,0,483.73,133.49Z" transform="translate(-297.61 -115.14)"/>
    <path class="cls-1" d="M484.12,141.4h-.39a2.55,2.55,0,0,1-.39,0,5.23,5.23,0,0,1-2.07-.56v15.25h4.93V140.85A5.34,5.34,0,0,1,484.12,141.4Z" transform="translate(-297.61 -115.14)"/>
    <path class="cls-1" d="M367.39,132.85h2.27a3.75,3.75,0,0,1,3.75,3.75v13.86h8.11l2.93,5.62H371.12a3.73,3.73,0,0,1-3.73-3.72Z" transform="translate(-297.61 -115.14)"/>
    <path class="cls-1" d="M401,144.49h0a8.17,8.17,0,0,0-1.82-2.72,7.91,7.91,0,0,0-2.71-1.73,9.38,9.38,0,0,0-6.64,0,7.91,7.91,0,0,0-2.71,1.73,8.17,8.17,0,0,0-1.82,2.72,9.74,9.74,0,0,0,0,7,8.13,8.13,0,0,0,1.82,2.71,7.93,7.93,0,0,0,2.71,1.74,9.34,9.34,0,0,0,6.64,0,7.92,7.92,0,0,0,2.72-1.74,8.26,8.26,0,0,0,1.81-2.71,9.74,9.74,0,0,0,0-7ZM396.66,148a3.68,3.68,0,0,1-.27,1.45h0a3.4,3.4,0,0,1-.73,1.11,3.23,3.23,0,0,1-1.1.7,3.89,3.89,0,0,1-2.73,0,3.23,3.23,0,0,1-1.1-.7,3.43,3.43,0,0,1-.74-1.11,3.68,3.68,0,0,1-.27-1.45,3.75,3.75,0,0,1,.27-1.45,3.28,3.28,0,0,1,.74-1.1,3.23,3.23,0,0,1,1.1-.7,3.61,3.61,0,0,1,1.36-.25,3.7,3.7,0,0,1,1.37.25,3.16,3.16,0,0,1,1.83,1.8A3.75,3.75,0,0,1,396.66,148Z" transform="translate(-297.61 -115.14)"/>
    <path class="cls-1" d="M415.14,151.22a3,3,0,0,1-1,.49,4,4,0,0,1-2.81,0l-.3-.12a3.57,3.57,0,0,1-1.36-.87,3.31,3.31,0,0,1-.74-1.26,4,4,0,0,1-.27-1.48,3.93,3.93,0,0,1,.32-1.62,4.7,4.7,0,0,1,.69-1.06,2.43,2.43,0,0,1,.38-.34,4.18,4.18,0,0,1,1.15-.64,4.33,4.33,0,0,1,2.94,0,3.11,3.11,0,0,1,1,.49l.2.16,2.86-3.09-.19-.19a6.58,6.58,0,0,0-2.8-1.72,10.06,10.06,0,0,0-6.55.12,8.41,8.41,0,0,0-2.89,1.73,8.15,8.15,0,0,0-1.94,2.71,9.13,9.13,0,0,0,0,7.06,8.15,8.15,0,0,0,1.94,2.71A8.59,8.59,0,0,0,408.7,156a10.13,10.13,0,0,0,6.55.11,6.47,6.47,0,0,0,2.8-1.71l.19-.19-2.9-3.13Z" transform="translate(-297.61 -115.14)"/>
    <path class="cls-1" d="M439.37,132.85h2.34a3.74,3.74,0,0,1,3.74,3.75v19.48h-6.08Z" transform="translate(-297.61 -115.14)"/>
    <path class="cls-1" d="M467.35,140.13h3.36a1.63,1.63,0,0,1,1.63,1.57v1a6.39,6.39,0,0,1,1.87-2.21,5.56,5.56,0,0,1,3.58-.71c.47,0,1.35.4,1.35.93v4.15c-.61-.69-2.29-.78-2.66-.78a5.13,5.13,0,0,0-2.24.4,3,3,0,0,0-1.26,1.1,4.12,4.12,0,0,0-.57,1.69,15.78,15.78,0,0,0-.14,2.16v6.66h-4.92Z" transform="translate(-297.61 -115.14)"/>
    <path class="cls-1" d="M532.23,153.33a8,8,0,0,1-3,2.33,9,9,0,0,1-3.74.82,10.1,10.1,0,0,1-3.46-.59,8.46,8.46,0,0,1-2.83-1.69,8.05,8.05,0,0,1-1.88-2.64,9,9,0,0,1,0-6.9,8,8,0,0,1,1.88-2.64,8.46,8.46,0,0,1,2.83-1.69,10.1,10.1,0,0,1,3.46-.59,7.93,7.93,0,0,1,3.1.59A6.51,6.51,0,0,1,531,142a7.66,7.66,0,0,1,1.49,2.64,10.68,10.68,0,0,1,.53,3.45v1.54H521.56a3.91,3.91,0,0,0,1.28,2.25,4,4,0,0,0,4.48.29h0a2.93,2.93,0,0,1,3.35,0Zm-3.73-6.82a3,3,0,0,0-.87-2.28,3.13,3.13,0,0,0-2.35-.95,3.93,3.93,0,0,0-1.55.29,3.86,3.86,0,0,0-1.14.71,3.3,3.3,0,0,0-.73,1,3.22,3.22,0,0,0-.3,1.21Z" transform="translate(-297.61 -115.14)"/>
    <path class="cls-1" d="M514.88,153.6c-.3.16-.52.14-.63,0s-.28-.39-.3-.92v-6a12.25,12.25,0,0,0-.28-2.71,6.06,6.06,0,0,0-.92-2.2,4.36,4.36,0,0,0-1.74-1.48,6.07,6.07,0,0,0-2.7-.54,6.21,6.21,0,0,0-3,.66,5.34,5.34,0,0,0-2.07,2.2,4.33,4.33,0,0,0-1.95-2.17,6.2,6.2,0,0,0-3-.69,5.7,5.7,0,0,0-1.64.23,5.92,5.92,0,0,0-1.35.59,4.89,4.89,0,0,0-1,.82,3.77,3.77,0,0,0-.66.92,2.14,2.14,0,0,0-2.22-2.17h-2.57v16h4.92v-7.94a12.22,12.22,0,0,1,.1-1.51,3.76,3.76,0,0,1,.41-1.29,2.34,2.34,0,0,1,.9-.92,3.07,3.07,0,0,1,1.55-.35,1.85,1.85,0,0,1,1.29.4,2.2,2.2,0,0,1,.64.95,4.12,4.12,0,0,1,.23,1.18q0,.63,0,1.05v5.77h4.93v-5.77a6.87,6.87,0,0,1,.14-1.38,3.24,3.24,0,0,1,.5-1.15,2.32,2.32,0,0,1,.92-.77,3.29,3.29,0,0,1,1.42-.28,1.79,1.79,0,0,1,1.69.81,3.65,3.65,0,0,1,.48,1.92v6.82a2.55,2.55,0,0,0,1.86,2.67,4.06,4.06,0,0,0,2.86-.15,21.66,21.66,0,0,0,2.41-1.37v-2A12.6,12.6,0,0,1,514.88,153.6Z" transform="translate(-297.61 -115.14)"/>
    <path class="cls-1" d="M436,153a.51.51,0,0,1-.3.08c-.18-.18-.22-.25-.23-1.15v-4a17.12,17.12,0,0,0-.33-3.56,6.36,6.36,0,0,0-1.2-2.67,5.57,5.57,0,0,0-2.33-1.67,11.08,11.08,0,0,0-3.78-.56,11.47,11.47,0,0,0-3.86.66,9.17,9.17,0,0,0-3.28,2l-.21.19,3,3.09.19-.22a5.88,5.88,0,0,1,1.69-1.32,4.45,4.45,0,0,1,2.07-.48,3,3,0,0,1,2,.71,2.18,2.18,0,0,1,.82,1.57l-1.91,0a21.57,21.57,0,0,0-2.4.2,15,15,0,0,0-2.34.51,7.32,7.32,0,0,0-2,1,4.82,4.82,0,0,0-1.45,1.66,5.11,5.11,0,0,0-.54,2.44,5,5,0,0,0,.49,2.25,4.81,4.81,0,0,0,1.31,1.62,5.76,5.76,0,0,0,1.89,1,7.79,7.79,0,0,0,5.16-.26,4.72,4.72,0,0,0,1.93-1.44,2.27,2.27,0,0,0,2.17,1.63h.33a5.35,5.35,0,0,0,2.09-.39,26.68,26.68,0,0,0,2.55-1.47v-2.47A14,14,0,0,1,436,153Zm-5.72-4.29V150a2.37,2.37,0,0,1-.27,1.16,2.46,2.46,0,0,1-.75.82,3.83,3.83,0,0,1-1.1.51,3.48,3.48,0,0,1-2.73-.2,1.11,1.11,0,0,1-.6-1.06,1.33,1.33,0,0,1,.43-1.06,3.41,3.41,0,0,1,1.2-.62,22.78,22.78,0,0,1,2.34-.53C429.23,149,429.88,148.82,430.28,148.71Z" transform="translate(-297.61 -115.14)"/>
    <path class="cls-1" d="M457.12,138.47a8.16,8.16,0,0,0-6.31,3,9,9,0,0,0-1.87,5.23v18.26h4.92V154.16a8.17,8.17,0,1,0,3.26-15.69Zm.08,11.88a3.7,3.7,0,0,1,0-7.39,3.7,3.7,0,0,1,0,7.39Z" transform="translate(-297.61 -115.14)"/>
  </g>
</svg>
