<svg id="レイヤー_1" data-name="レイヤー 1" xmlns="http://www.w3.org/2000/svg" width="30" height="48" viewBox="0 0 30 48"><defs><style>.cls-1{fill:#d09861;}.cls-2{fill:#fff;}</style></defs><title>restaurants_and_cafe</title><g id="map_pin_fill"><path class="cls-1" d="M25.33,4.91A14.6,14.6,0,0,0,4.67,25.56S15,35.68,15,47.37c0-11.68,10.33-21.8,10.33-21.8A14.6,14.6,0,0,0,25.33,4.91Z"/></g><path class="cls-2" d="M13.72,6.39v4.72h-.85V6.42a.43.43,0,1,0-.85,0v4.69h-.85V6.41a.43.43,0,0,0-.85,0v4.72H9.46V6.43a.43.43,0,0,0-.85,0v6.17A1.61,1.61,0,0,0,10.31,14V25.18a1.28,1.28,0,1,0,2.56,0V14a1.71,1.71,0,0,0,1.71-1.38V6.41A.43.43,0,0,0,13.72,6.39ZM17.56,7.7V18.36h.85v6.82c0,1.71,3,1.71,3,0V7.7C21.39,5.57,17.56,5.57,17.56,7.7Z"/></svg>